<svg xmlns="http://www.w3.org/2000/svg" viewBox="0 0 400 280" width="400" height="280" font-family="Helvetica, Arial, sans-serif">
<defs><marker id="ah" viewBox="0 0 10 10" refX="8" refY="5" markerWidth="7" markerHeight="7" orient="auto-start-reverse"><path d="M0,0 L10,5 L0,10 z" fill="#e4572e"/></marker></defs>
<rect x="1" y="1" width="398" height="278" rx="14" fill="#fbfaf7" stroke="#e6e2da"/>
<text x="20" y="34" font-size="17" font-weight="700" fill="#2b2b2b">2 · Hochschieben</text>
<text x="20" y="54" font-size="12.5" fill="#6b6b6b">Arme langsam nach oben gleiten, Kontakt halten</text>
<rect x="110" y="64" width="180" height="200" rx="6" fill="#efece6"/><text x="282" y="80" font-size="12" fill="#9aa5b1" text-anchor="end">Wand</text><polyline points="200,120 200,190" fill="none" stroke="#2b2b2b" stroke-width="7" stroke-linecap="round" stroke-linejoin="round"/><polyline points="185,250 200,190 215,250" fill="none" stroke="#2b2b2b" stroke-width="7" stroke-linecap="round" stroke-linejoin="round"/><polyline points="182,125 218,125" fill="none" stroke="#2b2b2b" stroke-width="6" stroke-linecap="round" stroke-linejoin="round"/><polyline points="182,125 165,96 160,62" fill="none" stroke="#e4572e" stroke-width="6" stroke-linecap="round" stroke-linejoin="round"/><polyline points="218,125 235,96 240,62" fill="none" stroke="#e4572e" stroke-width="6" stroke-linecap="round" stroke-linejoin="round"/><circle cx="200" cy="98" r="14" fill="#fbfaf7" stroke="#2b2b2b" stroke-width="5"/><path d="M140,128 Q132,100 150,72" fill="none" stroke="#e4572e" stroke-width="2.5" marker-end="url(#ah)"/><path d="M260,128 Q268,100 250,72" fill="none" stroke="#e4572e" stroke-width="2.5" marker-end="url(#ah)"/>
</svg>